<?xml version="1.0" encoding="UTF-8"?>
<svg width="8px" viewBox="0 0 8 20" version="1.1" xmlns="http://www.w3.org/2000/svg" xmlns:xlink="http://www.w3.org/1999/xlink">
    <!-- Generator: Sketch 51 (57462) - http://www.bohemiancoding.com/sketch -->
    <title>facebook</title>
    <desc>Created with Sketch.</desc>
    <defs>
    <g id="facebook" stroke="none" stroke-width="1" fill-rule="evenodd">
        <g id="Pedresa-Escritorio" transform="translate(-1659.000000, -353.000000)" >
            <g id="redes" transform="translate(1659.000000, 353.000000)">
                <path d="M5.15034695,0.00830885427 C6.10020046,-0.00608250348 7.05011565,0.0011131754 7.99383192,0.00830885427 C8,1.17400883 8,2.33970881 7.99383192,3.50900663 L6.16499614,3.50900663 C5.77023901,3.47662607 5.37239784,3.8256165 5.30146492,4.27174859 C5.2922128,5.05247975 5.30146492,5.8332109 5.30146492,6.62113774 L8,6.62833342 C7.92906708,7.75445716 7.81184271,8.88417875 7.67617579,9.99591113 C6.87740941,10.0067047 6.08478026,9.99591113 5.28912876,10.0067047 C5.27987664,13.338304 5.29529684,16.6627076 5.27987664,19.9979407 C4.09868928,20.0051005 2.92058597,19.9907091 1.73939861,19.9979407 C1.71781033,16.6663055 1.73939861,13.3347061 1.72706245,10.0067047 C1.15034695,9.98871545 0.570547417,10.0067047 0,9.99231329 C0.00616808019,8.87698307 0,7.75085932 0,6.62833342 C0.576715497,6.62113774 1.15034695,6.6355291 1.72706245,6.62113774 C1.74248265,5.53818807 1.71164225,4.44084704 1.74248265,3.36149521 C1.80416345,2.49441591 2.0848111,1.6273366 2.63377024,1.03369309 C3.30300694,0.285342491 4.25289129,0.0370915698 5.15034695,0.00830885427 Z" id="facebook"></path>
            </g>
        </g>
    </g>
    </defs>
</svg>