<?xml version="1.0" encoding="UTF-8"?>
<svg width="28px"  viewBox="0 0 28 20" version="1.1" xmlns="http://www.w3.org/2000/svg" xmlns:xlink="http://www.w3.org/1999/xlink">
    <!-- Generator: Sketch 51 (57462) - http://www.bohemiancoding.com/sketch -->
    <title>google</title>
    <desc>Created with Sketch.</desc>
    <defs>
    <g id="google" stroke="none" stroke-width="1"  fill-rule="evenodd">
        <g id="Pedresa-Escritorio" transform="translate(-1728.000000, -353.000000)" >
            <g id="redes" transform="translate(1659.000000, 353.000000)">
                <path d="M77.7695821,7.90570726 L77.7695821,12.0870599 L82.7698105,12.0870599 C82.0216945,14.3036806 80.1130395,15.8833827 77.8814798,15.8833827 C74.9945193,15.8833827 72.657456,13.245748 72.657456,9.99998201 C72.657456,6.75421599 74.9977164,4.11658129 77.8878739,4.11658129 C79.1730989,4.11658129 80.3464261,4.64194919 81.2607901,5.50196923 L83.8759991,2.61964264 C82.2966431,0.989562811 80.1961635,0 77.8878739,0 C72.9803608,0 69,4.47282391 69,9.99998201 C69,15.5235417 72.9739667,20 77.8846769,20 C82.7889929,20 86.7693537,15.5235417 86.7693537,9.99998201 C86.7693537,9.28029996 86.699018,8.58580679 86.571135,7.90570726 L77.7695821,7.90570726 Z M93.9084266,8.22956418 L93.9084266,4.74630308 L91.6576844,4.74630308 L91.6576844,8.22956418 L88.566111,8.22956418 L88.566111,10.762845 L91.6576844,10.762845 L91.6576844,14.2425436 L93.9084266,14.2425436 L93.9084266,10.762845 L97,10.762845 L97,8.22956418 L93.9084266,8.22956418 Z" id="google"></path>
            </g>
        </g>
    </g>
    </defs>
</svg>