<?xml version="1.0" encoding="UTF-8"?>
<svg  height="23px" viewBox="0 0 103 23" version="1.1" xmlns="http://www.w3.org/2000/svg" xmlns:xlink="http://www.w3.org/1999/xlink">
    <!-- Generator: Sketch 51 (57462) - http://www.bohemiancoding.com/sketch -->
    <title>logo elpais</title>
    <desc>Created with Sketch.</desc>
    <defs>
    <g id="elpais"  fill-rule="evenodd">
        <g id="Pedresa-Escritorio" transform="translate(-50.000000, -32.000000)">
            <g id="Logo-pais-40-app" transform="translate(50.000000, 32.000000)">
                <g id="svg2">
                    <g id="g10" transform="translate(51.500000, 11.500000) scale(1, -1) translate(-51.500000, -11.500000) ">
                        <g id="g12">
                            <g id="g14-Clipped">
                                <g id="g14" transform="translate(0.221725, 0.224530)">
                                    <g id="e" transform="translate(0.111195, 0.836565)">
                                        <path d="M0,0 L0,1.95757203 L1.51360599,1.95757203 C2.44052752,1.95757203 2.95936412,2.23274849 2.95936412,3.81427866 L2.95936412,14.1436782 C2.95936412,15.2864929 2.63808453,15.6331565 1.22126152,15.6331565 L0,15.6331565 L0,17.6024798 L17.9327887,17.6024798 L17.9327887,10.5879283 L15.926288,10.5879283 C15.5221941,14.199497 15.1969234,15.6331565 11.5491031,15.6331565 L6.76083994,15.6331565 L6.76083994,10.1110211 L8.20959136,10.1110211 C9.84093335,10.1110211 10.5722934,10.91011 10.5722934,13.0537444 L10.5722934,13.400408 L12.5907673,13.400408 L12.5907673,4.52817061 L10.5722934,4.52817061 L10.5722934,5.1803682 C10.5722934,7.32204405 9.84093335,8.15051125 8.20959136,8.15051125 L6.76083994,8.15051125 L6.76083994,1.95757203 L12.213613,1.95757203 C14.707022,1.95757203 15.6888204,3.46859436 15.926288,7.41997161 L17.9327887,7.41997161 L17.9327887,0 L0,0 Z" id="path22"></path>
                                    </g>
                                    <g id="l" transform="translate(19.518877, 0.836565)">
                                        <path d="M0,0 L0,1.95757203 L1.74209365,1.95757203 C2.49839776,1.95757203 3.02022764,2.23274849 3.02022764,3.12388933 L3.02022764,14.4903418 C3.02022764,15.2864929 2.6710107,15.6331565 1.57646504,15.6331565 L0,15.6331565 L0,17.6024798 L9.95368053,17.6024798 L9.95368053,15.6331565 L8.44306783,15.6331565 C7.22879064,15.6331565 6.82369899,15.3707106 6.82369899,14.4364817 L6.82369899,1.92623521 L11.2607496,1.92623521 C14.0674561,1.92623521 14.7379526,3.44215392 14.9804089,7.55804948 L16.9988828,7.55804948 L16.9988828,0 L0,0 Z" id="path26"></path>
                                    </g>
                                    <g id="p" transform="translate(41.870557, 0.836565)">
                                        <path d="M0,0 L0,1.95757203 L1.73810259,1.95757203 C2.36868861,1.95757203 2.91147151,2.17692977 2.91147151,2.86242273 L2.91147151,14.73614 C2.91147151,15.4255501 2.36868861,15.6331565 1.73810259,15.6331565 L0,15.6331565 L0,17.6024798 L10.6600965,17.6024798 C14.7329638,17.6024798 17.0767083,15.7673173 17.0767083,12.7648581 C17.0767083,9.50484948 14.6212144,7.96249032 10.9823739,7.96249032 L6.71693838,7.96249032 L6.71693838,2.86242273 C6.71693838,2.17692977 7.39142596,1.95757203 8.02300974,1.95757203 L9.76510338,1.95757203 L9.76510338,0 L0,0 Z M6.71693838,9.92789656 L9.18739879,9.92789656 C11.7456623,9.92789656 13.1086061,10.7015243 13.1086061,12.7403762 C13.1086061,14.7909794 12.0230403,15.6331565 9.18739879,15.6331565 L6.71693838,15.6331565 L6.71693838,9.92789656 Z" id="path30"></path>
                                    </g>
                                    <g id="a" transform="translate(55.901594, 0.836565)">
                                        <path d="M0,0 L8.47898728,0 L8.47898728,1.95757203 L6.35973934,1.95757203 C5.84190051,1.95757203 5.49068805,2.06137525 5.49068805,2.43839637 C5.49068805,2.67146398 5.55155157,2.83500301 5.60044194,2.98483219 L6.50241941,5.64258631 L12.6765749,5.64258631 L13.5575993,2.98483219 C13.6144718,2.83500301 13.6713443,2.5980183 13.6713443,2.35124084 C13.6713443,2.09369134 13.4628119,1.95757203 12.8252415,1.95757203 L10.6800518,1.95757203 L10.6800518,0 L29.0847822,0 L29.0847822,1.95757203 L27.5123082,1.95757203 C26.5853867,1.95757203 26.1773018,2.40999738 26.1773018,3.26392575 L26.1773018,14.363036 C26.1773018,15.3707106 27.0194135,15.6331565 27.8954491,15.6331565 L29.0847822,15.6331565 L29.0847822,17.6024798 L19.46635,17.6024798 L19.46635,15.6331565 L20.9819515,15.6331565 C22.047562,15.6331565 22.3728326,15.109244 22.3728326,14.4364817 L22.3728326,2.91628289 C22.3728326,2.23274849 21.9398036,1.95757203 20.8163229,1.95757203 L20.1448286,1.95757203 C18.7110436,1.95757203 17.780131,2.14265513 17.2952184,3.38829376 L11.8434431,17.6024798 L8.04196723,17.6024798 L2.84661694,3.38829376 C2.38465281,2.14265513 1.44775365,1.95757203 0,1.95757203 L0,0 Z M11.8793625,7.61386819 L7.28566311,7.61386819 L9.46178353,14.0222481 L9.51765824,14.0222481 L11.8793625,7.61386819 Z" id="path34"></path>
                                    </g>
                                    <g id="i" transform="translate(86.402601, 0.243620)">
                                        <path d="M12.9709149,18.1955231 L14.5533665,18.1955231 L14.5533665,11.5031533 L12.5907673,11.5031533 C11.9442171,14.3900579 10.2340518,16.4759151 6.98633431,16.4759151 C4.46399025,16.4759151 3.42033048,15.8286138 3.42033048,14.077669 C3.42033048,10.0978927 15.5501314,13.0709736 15.5501314,5.65785693 C15.5501314,1.42836539 12.1796891,0.0534623732 8.3822043,0.0534623732 C6.34078185,0.0534623732 4.29636611,0.909349293 2.72488989,2.14617444 L2.12224123,0.593043257 L0.279373551,0.593043257 L0.279373551,7.77505089 L2.28786983,7.77505089 C2.66801742,4.22909375 4.90001254,2.31363058 8.75836083,2.31363058 C11.1609734,2.31363058 12.2964273,3.40062655 12.2964273,4.66780924 C12.2964273,9.21360682 0.168621893,5.78614204 0.168621893,13.3882589 C0.168621893,17.1388847 3.61888525,18.7194356 6.90651329,18.7194356 C8.97088429,18.7194356 10.7049958,17.7989165 12.0729285,16.8725217 L12.9709149,18.1955231 Z" id="path38"></path>
                                    </g>
                                    <g id="s" transform="translate(75.064225, 19.313642)">
                                        <polygon id="path42" points="9.97762683 2.52711267 9.97762683 0.310032594 0.0658523371 0.310032594"></polygon>
                                    </g>
                                </g>
                            </g>
                        </g>
                    </g>
                </g>
            </g>
        </g>
    </g>
    </defs>
</svg>
