<?xml version="1.0" encoding="UTF-8"?>
<svg width="29px" height="40px" viewBox="0 0 29 40" version="1.1" xmlns="http://www.w3.org/2000/svg" xmlns:xlink="http://www.w3.org/1999/xlink">
    <!-- Generator: Sketch 51 (57462) - http://www.bohemiancoding.com/sketch -->
    <title>villarejo</title>
    <desc>Created with Sketch.</desc>
    <defs>
    <g id="mark" stroke="none" stroke-width="1" fill="none" fill-rule="evenodd">
        <g id="Pedresa-Escritorio" transform="translate(-1772.000000, -1110.000000)" fill="#F6CE00" stroke="#000000">
            <g id="spot" transform="translate(1773.000000, 1111.000000)">
                <g id="if_facebook_places_115480">
                    <path d="M26.3620161,9.70688238 C26.2226613,9.18643748 25.9391613,8.63219183 25.7296935,8.14684771 C23.2217419,2.1493811 17.7420484,0 13.3175323,0 C7.39451613,0 0.870967742,3.95208782 0,12.0985022 L0,13.7629725 C0,13.8323074 0.0239516129,14.4563213 0.0583548387,14.7683282 C0.546532258,18.6506478 3.62496774,22.7765061 5.92432258,26.6588258 C8.39787097,30.8184849 10.9646129,34.9101091 13.5082742,39 C15.0760161,36.3310407 16.6385323,33.6269806 18.171,31.0269228 C18.588629,30.2638059 19.0728871,29.5011222 19.4909516,28.7731061 C19.7696613,28.2881953 20.3018226,27.8032845 20.5452581,27.3521745 C23.018371,22.8467077 27,18.3044068 27,13.8323074 L27,11.9949332 C27,11.5100224 26.3959839,9.81131803 26.3620161,9.70688238 M13.4259677,18.0617347 C11.6849032,18.0617347 9.77922581,17.1954821 8.83858065,14.8029956 C8.69835484,14.4220872 8.70967742,13.6589702 8.70967742,13.589202 L8.70967742,12.5145114 C8.70967742,9.46464366 11.312129,8.07751283 13.5762097,8.07751283 C16.3633065,8.07751283 18.5193871,10.2966621 18.5193871,13.0700571 C18.5193871,15.8434521 16.2130645,18.0617347 13.4259677,18.0617347" id="Shape" fill-rule="nonzero"></path>
                </g>
            </g>
        </g>
    </g>
    </defs>
</svg>