<?xml version="1.0" encoding="UTF-8"?>
<svg width="25px" height="58px" viewBox="0 0 25 58" version="1.1" xmlns="http://www.w3.org/2000/svg" xmlns:xlink="http://www.w3.org/1999/xlink">
    <!-- Generator: Sketch 51 (57462) - http://www.bohemiancoding.com/sketch -->
    <title>mouse_down</title>
    <desc>Created with Sketch.</desc>
    <defs></defs>
    <g id="mouse_down" stroke="none" stroke-width="1" fill="none" fill-rule="evenodd">
        <g id="Pedresa-Escritorio" transform="translate(-906.000000, -1092.000000)">
            <g id="mouse_down" transform="translate(906.000000, 1092.000000)">
                <rect id="Rectangle" stroke="#FFFFFF" stroke-width="2" x="1" y="1" width="23" height="34" rx="11.5"></rect>
                <path d="M13,5 C12.4477803,5 12,5.28321727 12,5.63321727 L12,11.3667827 C12,11.7167827 12.4477803,12 13,12 C13.5522197,12 14,11.7167827 14,11.3667827 L14,5.63321727 C13.9997434,5.28321727 13.5522197,5 13,5 Z" id="Shape" fill="#FFFFFF" fill-rule="nonzero"></path>
                <path d="M16.6761923,53.7920823 L9.88741097,60.6716145 C9.45556248,61.1094618 8.75539418,61.1094618 8.32375534,60.6716145 C7.89208155,60.2341567 7.89208155,59.5246422 8.32375534,59.0872198 L14.3307787,52.9998849 L8.32393005,46.9127625 C7.89225626,46.4751276 7.89225626,45.765684 8.32393005,45.3282261 C8.75560383,44.8905913 9.45573719,44.8905913 9.88758568,45.3282261 L16.676367,52.2078646 C16.8922039,52.4266997 17,52.7132038 17,52.9998495 C17,53.2866368 16.8919942,53.5733534 16.6761923,53.7920823 Z" id="Shape" fill="#FFFFFF" fill-rule="nonzero" transform="translate(12.500000, 53.000000) rotate(90.000000) translate(-12.500000, -53.000000) "></path>
                <path d="M16.6761923,45.7920823 L9.88741097,52.6716145 C9.45556248,53.1094618 8.75539418,53.1094618 8.32375534,52.6716145 C7.89208155,52.2341567 7.89208155,51.5246422 8.32375534,51.0872198 L14.3307787,44.9998849 L8.32393005,38.9127625 C7.89225626,38.4751276 7.89225626,37.765684 8.32393005,37.3282261 C8.75560383,36.8905913 9.45573719,36.8905913 9.88758568,37.3282261 L16.676367,44.2078646 C16.8922039,44.4266997 17,44.7132038 17,44.9998495 C17,45.2866368 16.8919942,45.5733534 16.6761923,45.7920823 Z" id="Shape" fill="#FFFFFF" fill-rule="nonzero" transform="translate(12.500000, 45.000000) rotate(90.000000) translate(-12.500000, -45.000000) "></path>
            </g>
        </g>
    </g>
</svg>