<?xml version="1.0" encoding="UTF-8"?>
<svg width="22px" viewBox="0 0 22 20" version="1.1" xmlns="http://www.w3.org/2000/svg" xmlns:xlink="http://www.w3.org/1999/xlink">
    <!-- Generator: Sketch 51 (57462) - http://www.bohemiancoding.com/sketch -->
    <title>twitter</title>
    <desc>Created with Sketch.</desc>
    <defs>
    <g id="twitter" stroke="none" stroke-width="1"  fill-rule="evenodd">
        <g id="Pedresa-Escritorio" transform="translate(-1687.000000, -353.000000)">
            <g id="redes" transform="translate(1659.000000, 353.000000)">
                <path d="M47.4113859,3.16036036 C48.3418703,2.53333333 49.0566369,1.54234234 49.3947022,0.367567568 C48.5253915,0.944144144 47.556271,1.36576577 46.5259769,1.5963964 C45.7017415,0.612612613 44.5330016,0 43.2290356,0 C40.740199,0 38.7214986,2.26306306 38.7214986,5.04864865 C38.7214986,5.44504505 38.756915,4.16576577 38.8374067,4.52972973 C35.0832724,4.31711712 31.7605737,3.97837838 29.5325626,0.918918919 C29.1429826,1.66846847 28.9208254,2.53693694 28.9208254,3.45585586 C28.9208254,5.21441441 29.7193034,6.76036036 30.9266794,7.66126126 C30.1893751,7.63603604 29.4939265,7.40540541 28.8821894,7.02702703 L28.8821894,7.09189189 C28.8821894,9.53513514 30.4405093,11.5783784 32.5043173,12.0468468 C32.127616,12.1621622 31.728377,12.227027 31.3162593,12.227027 C31.0232694,12.227027 30.7399385,12.1873874 30.4662666,12.1297297 C31.0425874,14.1369369 32.7103761,15.599964 34.6808137,15.6396396 C33.1385921,16.9945946 31.1906922,17.8018018 29.0785892,17.8018018 C28.7115469,17.8018018 28.3541636,17.7837838 28,17.7297297 C29.9994146,19.1603604 32.3690912,20 34.9222889,20 C43.2225962,20 47.7623299,12.3026667 47.7623299,5.62882883 C47.7623299,5.41261261 47.7558905,5.19279279 47.7462315,4.97657658 C48.6283887,4.26666667 49.3947022,3.37657658 50,2.36036036 C49.1950827,2.76396396 48.3225201,3.03783784 47.4113859,3.16036036 Z" id="twitter"></path>
            </g>
        </g>
    </g>
    </defs>
</svg>